<mxfile host="app.diagrams.net" agent="Mozilla/5.0 (iPad; CPU OS 18_3_1 like Mac OS X) AppleWebKit/605.1.15 (KHTML, like Gecko) CriOS/133.0.6943.120 Mobile/15E148 Safari/604.1" version="26.0.16">
  <diagram name="第 1 页" id="sWRYs7_S2zLO7wwhLYNa">
    <mxGraphModel>
      <root>
        <mxCell id="0" />
        <mxCell id="1" parent="0" />
      </root>
    </mxGraphModel>
  </diagram>
</mxfile>
